<?xml version="1.0" standalone="no"?>
<!DOCTYPE svg PUBLIC "-//W3C//DTD SVG 20010904//EN"
 "http://www.w3.org/TR/2001/REC-SVG-20010904/DTD/svg10.dtd">
<svg version="1.0" xmlns="http://www.w3.org/2000/svg"
 width="980.000000pt" height="584.000000pt" viewBox="0 0 980.000000 584.000000"
 preserveAspectRatio="xMidYMid meet">

<g transform="translate(0.000000,584.000000) scale(0.100000,-0.100000)"
fill="#000000" stroke="none">
<path d="M7884 5828 c-17 -4 -37 -15 -45 -24 -19 -23 4 -34 79 -34 68 0 111
-15 157 -54 l30 -25 -105 -1 c-153 -1 -327 -17 -388 -35 -37 -11 -71 -33 -117
-74 -50 -45 -77 -62 -116 -71 -34 -8 -62 -24 -85 -47 -37 -37 -45 -60 -16 -48
79 33 242 58 242 38 0 -20 -84 -86 -144 -113 -34 -15 -103 -40 -155 -54 -52
-15 -121 -42 -155 -59 -60 -32 -62 -32 -191 -30 -82 2 -125 -1 -116 -6 14 -9
133 -28 211 -33 29 -3 14 -10 -85 -42 -121 -39 -169 -59 -191 -80 -6 -7 -57
-20 -113 -29 -60 -10 -132 -30 -174 -48 -166 -72 -194 -81 -282 -94 -113 -16
-165 -42 -276 -138 -43 -37 -79 -70 -79 -73 0 -6 2 -5 95 54 109 70 204 112
252 112 23 0 44 -4 47 -9 3 -5 -25 -28 -62 -52 -198 -126 -233 -152 -263 -196
l-31 -45 79 55 c101 71 197 117 246 117 20 0 37 -4 37 -9 0 -14 -149 -129
-240 -184 l-85 -51 42 -11 c47 -11 66 -25 37 -26 -13 0 -9 -5 14 -15 17 -8 32
-16 32 -19 0 -7 -72 -38 -154 -67 -55 -20 -86 -22 -334 -26 -322 -4 -340 -3
-767 83 -433 87 -523 98 -765 92 -179 -4 -205 -7 -314 -36 -156 -41 -356 -117
-546 -206 -197 -93 -226 -101 -403 -125 -219 -29 -274 -48 -392 -139 -184
-141 -271 -277 -444 -688 -125 -300 -188 -433 -239 -507 -79 -115 -138 -134
-325 -101 -108 19 -195 50 -377 135 -213 100 -604 249 -618 236 -2 -3 87 -51
199 -107 279 -139 395 -202 381 -207 -33 -11 -340 86 -512 161 -154 67 -320
129 -334 124 -6 -2 54 -39 132 -81 79 -43 141 -80 138 -83 -2 -2 -21 0 -42 6
-54 15 -53 7 3 -24 84 -48 153 -95 153 -105 0 -5 -32 2 -70 15 -121 41 -290
87 -308 83 -11 -3 12 -23 69 -60 105 -69 201 -156 224 -205 10 -20 39 -70 66
-111 54 -83 63 -122 27 -122 -20 0 -17 -6 22 -41 78 -69 114 -105 138 -138 13
-17 32 -31 42 -31 10 0 56 -29 102 -64 135 -102 256 -156 357 -156 100 0 283
71 473 185 278 166 396 274 534 485 48 74 127 188 175 252 101 135 122 185
150 352 31 188 107 437 184 599 26 54 30 58 79 71 68 19 133 29 145 22 5 -3
-1 -37 -14 -79 -61 -192 -70 -379 -25 -507 74 -210 253 -518 485 -835 175
-238 229 -339 269 -495 35 -138 46 -279 46 -590 l0 -276 64 -70 c87 -95 154
-191 265 -376 51 -85 117 -186 147 -224 81 -104 87 -118 81 -188 -5 -49 -2
-69 14 -103 32 -67 67 -86 173 -94 124 -10 276 0 283 18 13 34 -133 205 -207
243 -49 25 -59 41 -105 163 -20 54 -67 165 -105 247 -112 241 -141 320 -119
320 13 0 203 -134 336 -237 109 -84 196 -198 217 -285 3 -15 35 -61 71 -103
l65 -77 -5 -66 c-4 -44 -1 -82 8 -112 l14 -45 165 0 c142 1 169 3 193 19 26
17 27 21 21 69 -11 81 -30 113 -125 211 -94 97 -111 130 -111 214 0 88 -32
127 -294 361 -116 104 -251 226 -300 272 l-89 84 10 125 c13 152 23 183 170
510 116 257 206 477 223 545 17 70 21 72 87 51 32 -10 211 -76 399 -147 395
-148 505 -183 635 -199 51 -6 266 -17 477 -24 l383 -12 161 -168 c174 -180
349 -344 438 -409 77 -56 120 -98 120 -118 0 -36 -155 -125 -290 -168 -75 -24
-210 -41 -323 -41 -51 0 -88 -5 -109 -16 -16 -9 -55 -16 -86 -16 -60 -1 -76
10 -114 81 -24 44 -55 52 -182 49 l-111 -3 -47 -95 c-70 -139 -103 -236 -89
-254 9 -11 70 -15 309 -18 249 -4 304 -8 342 -22 61 -23 90 -18 293 60 229 88
352 128 467 149 93 17 96 19 146 70 60 61 119 172 119 226 0 26 -18 72 -56
146 -30 59 -84 167 -121 238 -36 72 -69 140 -72 152 -7 21 -6 21 47 7 29 -7
125 -27 212 -44 275 -52 365 -84 445 -156 89 -81 121 -222 102 -454 -12 -144
-25 -181 -77 -211 -46 -27 -51 -50 -25 -118 37 -99 8 -130 -110 -118 -48 5
-62 3 -83 -13 -36 -29 -87 -113 -89 -146 -1 -42 50 -351 62 -374 6 -11 17 -17
25 -14 7 3 72 78 143 167 71 89 183 225 250 302 l120 140 7 300 c4 165 6 377
4 470 l-4 171 -35 58 c-62 102 -141 170 -295 256 -81 45 -356 228 -427 285
-33 25 -58 53 -58 64 0 10 23 44 52 77 123 141 178 354 178 691 l0 163 116
212 c240 438 326 580 389 638 43 40 92 33 232 -33 65 -30 134 -58 153 -61 21
-4 81 -37 145 -82 61 -41 166 -111 235 -154 141 -89 169 -114 175 -158 9 -74
90 -130 171 -118 133 18 324 198 324 306 0 46 -32 112 -139 289 -114 189 -222
383 -304 547 -47 94 -100 177 -184 290 -65 88 -129 173 -141 191 l-22 31 34
119 c19 65 37 141 41 168 l8 50 -23 -20 c-12 -11 -43 -48 -69 -83 l-46 -64 -6
90 c-9 113 -17 152 -34 152 -7 0 -39 -29 -69 -64 l-56 -64 -119 38 c-134 43
-276 75 -371 84 l-65 6 106 -38 c123 -45 129 -48 129 -69 0 -13 -15 -15 -102
-11 -103 4 -103 4 -229 66 -130 65 -201 84 -255 70z m-192 -233 c-43 -36 -94
-55 -149 -55 l-48 1 33 28 c40 35 81 49 145 50 l49 1 -30 -25z"/>
</g>
</svg>
